<svg xmlns="http://www.w3.org/2000/svg" data-name="Layer 1" viewBox="0 0 64 64"><path fill="#6563ff" d="M32,48.59A31.29,31.29,0,0,1,6.62,35.53a6.1,6.1,0,0,1,0-7.06,31.19,31.19,0,0,1,50.76,0,6.1,6.1,0,0,1,0,7.06A31.29,31.29,0,0,1,32,48.59Z"/><path fill="#6361eb" d="M32,36.92a8.24,8.24,0,1,1,8.24-8.24A8.25,8.25,0,0,1,32,36.92Z"/><path fill="#d8d8ff" d="M54.12,30.8a27.18,27.18,0,0,0-12.31-9.54,12.32,12.32,0,1,1-19.62,0A27.18,27.18,0,0,0,9.88,30.8a2,2,0,0,0,0,2.4,27.17,27.17,0,0,0,44.24,0A2,2,0,0,0,54.12,30.8Z"/></svg>